<svg width="1152" height="700" viewBox="0 0 1152 700" fill="none" xmlns="http://www.w3.org/2000/svg">
<g clip-path="url(#clip0_2:37)">
<rect width="1152" height="700" fill="#FAFFFD"/>
<path d="M109.786 180.12L79.4007 190.944L73.0222 173.038L155.769 143.562L162.147 161.468L131.762 172.292L159.208 249.341L137.233 257.169L109.786 180.12Z" fill="#A1EDD2" fill-opacity="0.22"/>
<path d="M29.7863 -1.8803L-0.599349 8.94373L-6.9778 -8.96213L75.7689 -38.4383L82.1474 -20.5324L51.7617 -9.7084L79.2083 67.341L57.233 75.1691L29.7863 -1.8803Z" fill="#A1EDD2" fill-opacity="0.22"/>
<path d="M350.251 379.69L362.234 413.332L340.259 421.16L328.179 387.247L269.673 339.3L293.004 330.988L333.399 364.14L343.738 312.916L365.306 305.233L350.251 379.69Z" fill="#A1EDD2" fill-opacity="0.22"/>
<path d="M511.251 16.6905L523.234 50.3318L501.259 58.1599L489.179 24.2473L430.673 -23.7003L454.004 -32.0116L494.399 1.13957L504.738 -50.0838L526.306 -57.767L511.251 16.6905Z" fill="#A1EDD2" fill-opacity="0.22"/>
<path d="M1075.25 335.69L1087.23 369.332L1065.26 377.16L1053.18 343.247L994.673 295.3L1018 286.988L1058.4 320.14L1068.74 268.916L1090.31 261.233L1075.25 335.69Z" fill="#A1EDD2" fill-opacity="0.22"/>
<path d="M382.251 682.69L394.234 716.332L372.259 724.16L360.179 690.247L301.673 642.3L325.004 633.988L365.399 667.14L375.738 615.916L397.306 608.233L382.251 682.69Z" fill="#A1EDD2" fill-opacity="0.22"/>
<path d="M427.349 76.7302C436.261 77.2659 443.886 79.2149 450.224 82.5772C456.657 85.9452 461.483 90.4669 464.7 96.1422C467.917 101.817 469.301 108.392 468.852 115.867C468.408 123.245 466.247 129.607 462.367 134.952C458.493 140.201 453.161 144.112 446.37 146.685C439.681 149.169 431.881 150.142 422.969 149.607L402.701 148.388L401.034 176.13L377.748 174.731L383.796 74.1124L427.349 76.7302ZM422.816 130.555C429.811 130.976 435.219 129.81 439.039 127.058C442.864 124.211 444.944 120.008 445.278 114.45C445.618 108.796 444.057 104.374 440.594 101.185C437.137 97.8996 431.91 96.0467 424.915 95.6262L405.941 94.4858L403.842 129.415L422.816 130.555Z" fill="#A1EDD2" fill-opacity="0.22"/>
<path d="M181.091 562.34C189.501 559.344 197.281 558.152 204.429 558.765C211.667 559.346 217.878 561.617 223.06 565.58C228.242 569.543 232.09 575.051 234.602 582.105C237.083 589.068 237.584 595.769 236.107 602.206C234.597 608.552 231.221 614.239 225.98 619.265C220.797 624.169 214 628.118 205.59 631.114L186.463 637.928L195.789 664.108L173.814 671.936L139.989 576.981L181.091 562.34ZM197.991 613.643C204.592 611.292 209.112 608.102 211.55 604.075C213.956 599.957 214.224 595.275 212.356 590.03C210.455 584.694 207.287 581.237 202.852 579.657C198.385 577.988 192.85 578.329 186.249 580.68L168.343 587.059L180.085 620.022L197.991 613.643Z" fill="#A1EDD2" fill-opacity="0.22"/>
<path d="M1139.09 111.34C1147.5 108.344 1155.28 107.152 1162.43 107.765C1169.67 108.346 1175.88 110.617 1181.06 114.58C1186.24 118.543 1190.09 124.051 1192.6 131.105C1195.08 138.068 1195.58 144.769 1194.11 151.206C1192.6 157.552 1189.22 163.239 1183.98 168.265C1178.8 173.169 1172 177.118 1163.59 180.114L1144.46 186.928L1153.79 213.108L1131.81 220.936L1097.99 125.981L1139.09 111.34ZM1155.99 162.643C1162.59 160.292 1167.11 157.102 1169.55 153.075C1171.96 148.957 1172.22 144.275 1170.36 139.03C1168.46 133.694 1165.29 130.237 1160.85 128.657C1156.38 126.988 1150.85 127.329 1144.25 129.68L1126.34 136.059L1138.08 169.022L1155.99 162.643Z" fill="#A1EDD2" fill-opacity="0.22"/>
<path d="M390.605 464.522L399.544 489.618L443.495 473.962L449.777 491.596L405.826 507.252L418.148 541.843L396.173 549.671L362.348 454.716L434.107 429.154L440.388 446.788L390.605 464.522Z" fill="#A1EDD2" fill-opacity="0.22"/>
<path d="M33.1539 340.86L40.1378 366.569L85.162 354.338L90.0696 372.403L45.0454 384.634L54.6718 420.07L32.1596 426.185L5.73425 328.911L79.246 308.941L84.1536 327.006L33.1539 340.86Z" fill="#A1EDD2" fill-opacity="0.22"/>
<path d="M275.189 204.426L282.173 230.134L327.197 217.903L332.105 235.968L287.08 248.199L296.707 283.635L274.195 289.751L247.769 192.476L321.281 172.506L326.189 190.571L275.189 204.426Z" fill="#A1EDD2" fill-opacity="0.22"/>
<path d="M534.849 286.115L490.762 301.819L489.6 325.163L467.082 333.184L475.58 223.152L497.284 215.421L573.568 295.252L550.507 303.466L534.849 286.115ZM521.987 271.894L493.98 240.904L491.873 282.622L521.987 271.894Z" fill="#A1EDD2" fill-opacity="0.22"/>
<path d="M855.849 691.115L811.762 706.819L810.6 730.163L788.082 738.184L796.58 628.152L818.284 620.421L894.568 700.252L871.507 708.466L855.849 691.115ZM842.987 676.894L814.98 645.904L812.873 687.622L842.987 676.894Z" fill="#A1EDD2" fill-opacity="0.22"/>
<path d="M586.018 557.161C578.512 559.835 570.878 561.434 563.116 561.957C555.411 562.357 548.854 561.687 543.444 559.945L545.01 540.738C550.142 542.273 555.834 542.946 562.085 542.757C568.336 542.569 574.265 541.476 579.872 539.479C586.112 537.256 590.402 534.709 592.742 531.837C595.05 528.875 595.656 525.856 594.561 522.781C593.756 520.521 592.191 518.989 589.867 518.186C587.601 517.261 584.905 516.845 581.78 516.94C578.744 517.002 574.682 517.328 569.593 517.918C561.746 518.777 555.211 519.168 549.987 519.093C544.763 519.018 539.801 517.677 535.102 515.071C530.493 512.432 527.061 507.948 524.806 501.618C522.841 496.101 522.562 490.596 523.968 485.101C525.341 479.517 528.545 474.35 533.58 469.601C538.704 464.82 545.608 460.883 554.289 457.791C560.348 455.633 566.529 454.246 572.833 453.631C579.136 453.016 584.941 453.292 590.248 454.459L589.409 473.56C578.865 471.711 569.207 472.349 560.435 475.474C554.286 477.664 550.073 480.286 547.798 483.339C545.613 486.359 545.1 489.497 546.26 492.753C547.419 496.008 549.962 497.854 553.888 498.29C557.872 498.603 563.62 498.288 571.131 497.345C578.978 496.486 585.513 496.094 590.737 496.169C595.961 496.245 600.862 497.556 605.438 500.105C610.105 502.62 613.566 507.043 615.821 513.374C617.754 518.8 617.988 524.321 616.524 529.938C615.118 535.433 611.853 540.57 606.728 545.351C601.603 550.132 594.7 554.069 586.018 557.161Z" fill="#A1EDD2" fill-opacity="0.22"/>
<path d="M234.018 88.1615C226.512 90.8353 218.878 92.4338 211.116 92.9569C203.411 93.3575 196.854 92.687 191.444 90.9454L193.01 71.7384C198.142 73.2731 203.834 73.9461 210.085 73.7575C216.336 73.5689 222.265 72.4759 227.872 70.4786C234.112 68.2558 238.402 65.7085 240.742 62.8368C243.05 59.8746 243.656 56.8562 242.561 53.7814C241.756 51.5206 240.191 49.9888 237.867 49.1862C235.601 48.2609 232.905 47.8454 229.78 47.9397C226.744 48.0018 222.682 48.3278 217.593 48.9178C209.746 49.7767 203.211 50.1685 197.987 50.0932C192.763 50.0179 187.801 48.6771 183.102 46.0708C178.493 43.4323 175.061 38.9479 172.806 32.6175C170.841 27.1011 170.562 21.5957 171.968 16.1014C173.341 10.5166 176.545 5.34988 181.58 0.601155C186.704 -4.17978 193.608 -8.11654 202.289 -11.2091C208.348 -13.3675 214.529 -14.7541 220.833 -15.3688C227.136 -15.9836 232.941 -15.7077 238.248 -14.5409L237.409 4.56014C226.865 2.71109 217.207 3.34896 208.435 6.47375C202.286 8.66433 198.073 11.2859 195.798 14.3385C193.613 17.3589 193.1 20.4969 194.26 23.7525C195.419 27.0082 197.962 28.8539 201.888 29.2898C205.872 29.603 211.62 29.288 219.131 28.3449C226.978 27.486 233.513 27.0942 238.737 27.1695C243.961 27.2448 248.862 28.5565 253.438 31.1045C258.105 33.6204 261.566 38.0435 263.821 44.3738C265.754 49.7999 265.988 55.3213 264.524 60.9383C263.118 66.4326 259.853 71.5703 254.728 76.3512C249.603 81.1321 242.7 85.0689 234.018 88.1615Z" fill="#A1EDD2" fill-opacity="0.22"/>
<path d="M609.018 710.161C601.512 712.835 593.878 714.434 586.116 714.957C578.411 715.357 571.854 714.687 566.444 712.945L568.01 693.738C573.142 695.273 578.834 695.946 585.085 695.757C591.336 695.569 597.265 694.476 602.872 692.479C609.112 690.256 613.402 687.709 615.742 684.837C618.05 681.875 618.656 678.856 617.561 675.781C616.756 673.521 615.191 671.989 612.867 671.186C610.601 670.261 607.905 669.845 604.78 669.94C601.744 670.002 597.682 670.328 592.593 670.918C584.746 671.777 578.211 672.168 572.987 672.093C567.763 672.018 562.801 670.677 558.102 668.071C553.493 665.432 550.061 660.948 547.806 654.618C545.841 649.101 545.562 643.596 546.968 638.101C548.341 632.517 551.545 627.35 556.58 622.601C561.704 617.82 568.608 613.883 577.289 610.791C583.348 608.633 589.529 607.246 595.833 606.631C602.136 606.016 607.941 606.292 613.248 607.459L612.409 626.56C601.865 624.711 592.207 625.349 583.435 628.474C577.286 630.664 573.073 633.286 570.798 636.339C568.613 639.359 568.1 642.497 569.26 645.753C570.419 649.008 572.962 650.854 576.888 651.29C580.872 651.603 586.62 651.288 594.131 650.345C601.978 649.486 608.513 649.094 613.737 649.169C618.961 649.245 623.862 650.556 628.438 653.105C633.105 655.62 636.566 660.043 638.821 666.374C640.754 671.8 640.988 677.321 639.524 682.938C638.118 688.433 634.853 693.57 629.728 698.351C624.603 703.132 617.7 707.069 609.018 710.161Z" fill="#A1EDD2" fill-opacity="0.22"/>
<path d="M669.786 376.12L639.401 386.944L633.022 369.038L715.769 339.562L722.147 357.468L691.762 368.292L719.208 445.341L697.233 453.169L669.786 376.12Z" fill="#A1EDD2" fill-opacity="0.22"/>
<path d="M1078.79 475.12L1048.4 485.944L1042.02 468.038L1124.77 438.562L1131.15 456.468L1100.76 467.292L1128.21 544.341L1106.23 552.169L1078.79 475.12Z" fill="#A1EDD2" fill-opacity="0.22"/>
<path d="M737.228 99.625L743.509 117.26L669.987 143.45L636.162 48.4945L707.921 22.9324L714.203 40.567L664.283 58.3493L671.628 78.9682L715.715 63.2637L721.803 80.3556L677.717 96.0601L685.545 118.035L737.228 99.625Z" fill="#A1EDD2" fill-opacity="0.22"/>
<path d="M884.115 323.456L856.38 303.527L855.295 303.914L836.168 310.727L845.591 337.179L823.615 345.007L789.79 250.052L830.892 235.41C839.303 232.414 847.082 231.223 854.23 231.836C861.469 232.416 867.679 234.688 872.861 238.651C878.044 242.614 881.891 248.122 884.404 255.176C886.917 262.23 887.373 268.946 885.772 275.325C884.23 281.581 880.823 287.177 875.549 292.113L907.719 315.048L884.115 323.456ZM862.157 263.101C860.256 257.765 857.089 254.308 852.653 252.728C848.186 251.059 842.652 251.399 836.05 253.751L818.144 260.13L829.935 293.228L847.84 286.85C854.442 284.498 858.946 281.263 861.351 277.145C863.757 273.027 864.026 268.346 862.157 263.101Z" fill="#A1EDD2" fill-opacity="0.22"/>
<path d="M809.894 565.178L775.227 540.381L764.452 581.366L739.221 590.354L757.152 529.547L707.159 494.77L732.119 485.879L764.927 508.892L775.391 470.465L799.13 462.008L782.364 519.649L835.261 556.142L809.894 565.178Z" fill="#A1EDD2" fill-opacity="0.22"/>
<path d="M713.894 287.178L679.227 262.381L668.452 303.366L643.221 312.354L661.152 251.547L611.159 216.77L636.119 207.879L668.927 230.892L679.391 192.465L703.13 184.008L686.364 241.649L739.261 278.142L713.894 287.178Z" fill="#A1EDD2" fill-opacity="0.22"/>
<path d="M942.251 169.69L954.234 203.332L932.259 211.16L920.179 177.247L861.673 129.3L885.004 120.988L925.399 154.14L935.738 102.916L957.306 95.233L942.251 169.69Z" fill="#A1EDD2" fill-opacity="0.22"/>
<path d="M979.522 461.146L985.901 479.052L902.883 508.624L897.809 494.381L927.526 413.019L876.521 431.188L870.143 413.282L950.041 384.821L955.115 399.064L925.533 480.378L979.522 461.146Z" fill="#A1EDD2" fill-opacity="0.22"/>
<path d="M245.228 462.625L251.509 480.26L177.987 506.45L144.162 411.495L215.921 385.932L222.203 403.567L172.283 421.349L179.628 441.968L223.715 426.264L229.803 443.356L185.717 459.06L193.545 481.036L245.228 462.625Z" fill="#A1EDD2" fill-opacity="0.22"/>
<path d="M959.228 39.625L965.509 57.2596L891.987 83.4498L858.162 -11.5054L929.921 -37.0675L936.203 -19.433L886.283 -1.65065L893.628 18.9682L937.715 3.26371L943.803 20.3557L899.717 36.0602L907.545 58.0355L959.228 39.625Z" fill="#A1EDD2" fill-opacity="0.22"/>
<path d="M1020.25 670.69L1032.23 704.332L1010.26 712.16L998.179 678.247L939.673 630.3L963.004 621.988L1003.4 655.14L1013.74 603.916L1035.31 596.233L1020.25 670.69Z" fill="#EFFFF9"/>
<path d="M74.2277 627.625L80.5095 645.26L6.98696 671.45L-26.8381 576.495L44.9209 550.932L51.2027 568.567L1.28338 586.349L8.62826 606.968L52.7146 591.264L58.8031 608.356L14.7168 624.06L22.5449 646.036L74.2277 627.625Z" fill="#A1EDD2" fill-opacity="0.22"/>
<path d="M534 374C534 365.716 540.716 359 549 359H567V377C567 385.284 560.284 392 552 392H534V374Z" fill="#A1EDD2" fill-opacity="0.22"/>
<path d="M549 359.5H566.5V377C566.5 385.008 560.008 391.5 552 391.5H534.5V374C534.5 365.992 540.992 359.5 549 359.5Z" stroke="#A1EDD2" stroke-opacity="0.22"/>
<path d="M529 413C529 421.284 522.284 428 514 428H496V410C496 401.716 502.716 395 511 395H529V413Z" fill="#A1EDD2" fill-opacity="0.22"/>
<path d="M514 427.5H496.5V410C496.5 401.992 502.992 395.5 511 395.5H528.5V413C528.5 421.008 522.008 427.5 514 427.5Z" stroke="#A1EDD2" stroke-opacity="0.22"/>
<path d="M529 374C529 365.716 522.284 359 514 359H496V377C496 385.284 502.716 392 511 392H529V374Z" fill="#A1EDD2" fill-opacity="0.22"/>
<path d="M514 359.5H496.5V377C496.5 385.008 502.992 391.5 511 391.5H528.5V374C528.5 365.992 522.008 359.5 514 359.5Z" stroke="#A1EDD2" stroke-opacity="0.22"/>
<path d="M534 413C534 421.284 540.716 428 549 428H567V410C567 401.716 560.284 395 552 395H534V413Z" fill="#A1EDD2" fill-opacity="0.22"/>
<path d="M549 427.5H566.5V410C566.5 401.992 560.008 395.5 552 395.5H534.5V413C534.5 421.008 540.992 427.5 549 427.5Z" stroke="#A1EDD2" stroke-opacity="0.22"/>
<path d="M257 668C257 659.716 263.716 653 272 653H290V671C290 679.284 283.284 686 275 686H257V668Z" fill="#A1EDD2" fill-opacity="0.22"/>
<path d="M272 653.5H289.5V671C289.5 679.008 283.008 685.5 275 685.5H257.5V668C257.5 659.992 263.992 653.5 272 653.5Z" stroke="#A1EDD2" stroke-opacity="0.22"/>
<path d="M252 707C252 715.284 245.284 722 237 722H219V704C219 695.716 225.716 689 234 689H252V707Z" fill="#A1EDD2" fill-opacity="0.22"/>
<path d="M237 721.5H219.5V704C219.5 695.992 225.992 689.5 234 689.5H251.5V707C251.5 715.008 245.008 721.5 237 721.5Z" stroke="#A1EDD2" stroke-opacity="0.22"/>
<path d="M252 668C252 659.716 245.284 653 237 653H219V671C219 679.284 225.716 686 234 686H252V668Z" fill="#A1EDD2" fill-opacity="0.22"/>
<path d="M237 653.5H219.5V671C219.5 679.008 225.992 685.5 234 685.5H251.5V668C251.5 659.992 245.008 653.5 237 653.5Z" stroke="#A1EDD2" stroke-opacity="0.22"/>
<path d="M257 707C257 715.284 263.716 722 272 722H290V704C290 695.716 283.284 689 275 689H257V707Z" fill="#A1EDD2" fill-opacity="0.22"/>
<path d="M272 721.5H289.5V704C289.5 695.992 283.008 689.5 275 689.5H257.5V707C257.5 715.008 263.992 721.5 272 721.5Z" stroke="#A1EDD2" stroke-opacity="0.22"/>
<path d="M794.232 155.178C800.672 149.968 810.117 150.964 815.328 157.405L826.65 171.398L812.656 182.72C806.216 187.931 796.771 186.934 791.56 180.494L780.239 166.5L794.232 155.178Z" fill="#A1EDD2" fill-opacity="0.22"/>
<path d="M814.939 157.719L825.947 171.324L812.342 182.331C806.116 187.368 796.986 186.405 791.949 180.179L780.942 166.574L794.547 155.567C800.772 150.53 809.902 151.494 814.939 157.719Z" stroke="#A1EDD2" stroke-opacity="0.22"/>
<path d="M760.768 175.822C754.328 181.032 744.883 180.036 739.672 173.595L728.35 159.602L742.344 148.28C748.784 143.069 758.229 144.066 763.44 150.506L774.761 164.5L760.768 175.822Z" fill="#A1EDD2" fill-opacity="0.22"/>
<path d="M740.061 173.281L729.053 159.676L742.658 148.669C748.884 143.632 758.014 144.595 763.051 150.821L774.058 164.426L760.453 175.433C754.228 180.47 745.098 179.506 740.061 173.281Z" stroke="#A1EDD2" stroke-opacity="0.22"/>
<path d="M791.087 151.291C797.527 146.08 798.524 136.635 793.314 130.195L781.992 116.202L767.998 127.523C761.558 132.734 760.561 142.179 765.772 148.619L777.094 162.613L791.087 151.291Z" fill="#A1EDD2" fill-opacity="0.22"/>
<path d="M792.925 130.51L781.918 116.905L768.313 127.912C762.087 132.949 761.124 142.079 766.161 148.305L777.168 161.91L790.773 150.902C796.998 145.865 797.962 136.735 792.925 130.51Z" stroke="#A1EDD2" stroke-opacity="0.22"/>
<path d="M763.913 179.709C757.473 184.919 756.476 194.364 761.686 200.805L773.008 214.798L787.002 203.477C793.442 198.266 794.439 188.821 789.228 182.38L777.906 168.387L763.913 179.709Z" fill="#A1EDD2" fill-opacity="0.22"/>
<path d="M762.075 200.49L773.082 214.095L786.687 203.088C792.913 198.051 793.876 188.921 788.839 182.695L777.832 169.09L764.227 180.097C758.002 185.134 757.038 194.265 762.075 200.49Z" stroke="#A1EDD2" stroke-opacity="0.22"/>
<path d="M993.882 574.977C1000.32 569.766 1009.77 570.763 1014.98 577.203L1026.3 591.197L1012.31 602.518C1005.87 607.729 996.421 606.732 991.21 600.292L979.888 586.298L993.882 574.977Z" fill="#A1EDD2" fill-opacity="0.22"/>
<path d="M1014.59 577.518L1025.6 591.122L1011.99 602.13C1005.77 607.167 996.636 606.203 991.599 599.977L980.592 586.373L994.196 575.365C1000.42 570.328 1009.55 571.292 1014.59 577.518Z" stroke="#A1EDD2" stroke-opacity="0.22"/>
<path d="M960.418 595.62C953.978 600.831 944.532 599.834 939.322 593.394L928 579.4L941.994 568.078C948.434 562.868 957.879 563.864 963.09 570.305L974.411 584.298L960.418 595.62Z" fill="#A1EDD2" fill-opacity="0.22"/>
<path d="M939.71 593.079L928.703 579.474L942.308 568.467C948.534 563.43 957.664 564.394 962.701 570.619L973.708 584.224L960.103 595.231C953.878 600.268 944.748 599.305 939.71 593.079Z" stroke="#A1EDD2" stroke-opacity="0.22"/>
<path d="M990.737 571.09C997.177 565.879 998.174 556.434 992.964 549.993L981.642 536L967.648 547.322C961.208 552.532 960.211 561.977 965.422 568.418L976.744 582.411L990.737 571.09Z" fill="#A1EDD2" fill-opacity="0.22"/>
<path d="M992.575 550.308L981.568 536.703L967.963 547.71C961.737 552.747 960.774 561.878 965.811 568.103L976.818 581.708L990.423 570.701C996.648 565.664 997.612 556.534 992.575 550.308Z" stroke="#A1EDD2" stroke-opacity="0.22"/>
<path d="M963.563 599.507C957.122 604.718 956.126 614.163 961.336 620.603L972.658 634.597L986.652 623.275C993.092 618.064 994.089 608.619 988.878 602.179L977.556 588.185L963.563 599.507Z" fill="#A1EDD2" fill-opacity="0.22"/>
<path d="M961.725 620.289L972.732 633.893L986.337 622.886C992.563 617.849 993.526 608.719 988.489 602.493L977.482 588.889L963.877 599.896C957.652 604.933 956.688 614.063 961.725 620.289Z" stroke="#A1EDD2" stroke-opacity="0.22"/>
<path d="M169 301C169 292.716 175.716 286 184 286H202V304C202 312.284 195.284 319 187 319H169V301Z" fill="#A1EDD2" fill-opacity="0.22"/>
<path d="M184 286.5H201.5V304C201.5 312.008 195.008 318.5 187 318.5H169.5V301C169.5 292.992 175.992 286.5 184 286.5Z" stroke="#A1EDD2" stroke-opacity="0.22"/>
<path d="M164 340C164 348.284 157.284 355 149 355H131V337C131 328.716 137.716 322 146 322H164V340Z" fill="#A1EDD2" fill-opacity="0.22"/>
<path d="M149 354.5H131.5V337C131.5 328.992 137.992 322.5 146 322.5H163.5V340C163.5 348.008 157.008 354.5 149 354.5Z" stroke="#A1EDD2" stroke-opacity="0.22"/>
<path d="M164 301C164 292.716 157.284 286 149 286H131V304C131 312.284 137.716 319 146 319H164V301Z" fill="#A1EDD2" fill-opacity="0.22"/>
<path d="M149 286.5H131.5V304C131.5 312.008 137.992 318.5 146 318.5H163.5V301C163.5 292.992 157.008 286.5 149 286.5Z" stroke="#A1EDD2" stroke-opacity="0.22"/>
<path d="M169 340C169 348.284 175.716 355 184 355H202V337C202 328.716 195.284 322 187 322H169V340Z" fill="#A1EDD2" fill-opacity="0.22"/>
<path d="M184 354.5H201.5V337C201.5 328.992 195.008 322.5 187 322.5H169.5V340C169.5 348.008 175.992 354.5 184 354.5Z" stroke="#A1EDD2" stroke-opacity="0.22"/>
</g>
<defs>
<clipPath id="clip0_2:37">
<rect width="1152" height="700" fill="white"/>
</clipPath>
</defs>
</svg>
