<svg width="71" height="69" viewBox="0 0 71 69" fill="none" xmlns="http://www.w3.org/2000/svg">
<g filter="url(#filter0_b_7:8)">
<path d="M38.5 15C38.5 6.99187 44.9919 0.5 53 0.5H70.5V18C70.5 26.0081 64.0081 32.5 56 32.5H38.5V15Z" fill="#25BB85" fill-opacity="0.41" stroke="#25BB85"/>
<path d="M32.5 54C32.5 62.0081 26.0081 68.5 18 68.5H0.5V51C0.5 42.9919 6.99187 36.5 15 36.5H32.5V54Z" fill="#25BB85" fill-opacity="0.41" stroke="#25BB85"/>
<path d="M32.5 15C32.5 6.99187 26.0081 0.5 18 0.5H0.5V18C0.5 26.0081 6.99187 32.5 15 32.5H32.5V15Z" fill="#25BB85" fill-opacity="0.41" stroke="#25BB85"/>
<path d="M38.5 54C38.5 62.0081 44.9919 68.5 53 68.5H70.5V51C70.5 42.9919 64.0081 36.5 56 36.5H38.5V54Z" fill="#25BB85" fill-opacity="0.41" stroke="#25BB85"/>
</g>
<defs>
<filter id="filter0_b_7:8" x="-58" y="-58" width="187" height="185" filterUnits="userSpaceOnUse" color-interpolation-filters="sRGB">
<feFlood flood-opacity="0" result="BackgroundImageFix"/>
<feGaussianBlur in="BackgroundImage" stdDeviation="29"/>
<feComposite in2="SourceAlpha" operator="in" result="effect1_backgroundBlur_7:8"/>
<feBlend mode="normal" in="SourceGraphic" in2="effect1_backgroundBlur_7:8" result="shape"/>
</filter>
</defs>
</svg>
